<?xml version="1.0" standalone="no"?>
<!DOCTYPE svg PUBLIC "-//W3C//DTD SVG 20010904//EN"
 "http://www.w3.org/TR/2001/REC-SVG-20010904/DTD/svg10.dtd">
<svg version="1.0" xmlns="http://www.w3.org/2000/svg"
 width="816.000000pt" height="816.000000pt" viewBox="0 0 816.000000 816.000000"
 preserveAspectRatio="xMidYMid meet">
<metadata>
Created by potrace 1.11, written by Peter Selinger 2001-2013
</metadata>
<g transform="translate(0.000000,816.000000) scale(0.100000,-0.100000)"
fill="#000000" stroke="none">
<path d="M3447 6964 c-1 -1 -22 -5 -46 -8 -62 -8 -158 -56 -208 -102 -35 -33
-133 -171 -133 -188 0 -3 -17 -34 -38 -68 -21 -35 -51 -85 -66 -113 -84 -150
-191 -331 -200 -337 -6 -4 -7 -8 -2 -8 5 0 4 -6 -2 -12 -5 -7 -45 -74 -87
-148 -43 -74 -94 -162 -113 -195 -19 -33 -42 -73 -52 -90 -85 -148 -213 -370
-239 -413 -17 -29 -31 -55 -31 -57 0 -3 -16 -29 -35 -59 -19 -30 -35 -57 -35
-60 0 -2 -22 -41 -50 -85 -27 -45 -50 -85 -51 -89 -1 -4 -7 -16 -14 -27 -7
-11 -54 -92 -105 -180 -123 -212 -119 -206 -181 -315 -29 -52 -57 -96 -61 -98
-5 -2 -8 -8 -8 -13 0 -13 -122 -222 -135 -231 -5 -4 -6 -8 -1 -8 5 0 4 -6 -2
-12 -19 -24 -152 -258 -152 -268 0 -5 -4 -10 -10 -10 -5 0 -10 -5 -10 -10 0
-6 -11 -27 -23 -48 -13 -20 -35 -57 -49 -82 -98 -172 -123 -216 -128 -220 -3
-3 -14 -23 -25 -45 -11 -22 -23 -42 -26 -45 -3 -3 -19 -30 -35 -60 -46 -85
-58 -104 -69 -112 -5 -4 -6 -8 -1 -8 5 0 2 -8 -6 -17 -8 -10 -42 -65 -74 -123
-32 -57 -63 -112 -69 -121 -5 -10 -33 -57 -61 -106 -28 -48 -83 -144 -123
-213 -287 -492 -387 -673 -403 -725 -25 -81 -24 -274 2 -351 47 -136 149 -230
289 -265 39 -9 561 -14 601 -5 91 20 156 54 212 110 38 38 99 132 190 294 58
104 364 632 384 664 13 21 24 40 24 42 0 2 26 49 58 103 32 54 61 105 65 113
4 8 15 29 26 45 18 30 163 281 361 625 146 253 260 449 282 485 10 17 21 37
25 45 4 8 26 47 50 86 24 39 43 75 43 78 0 4 8 19 19 34 15 22 262 448 305
527 6 11 13 22 16 25 3 3 14 23 25 45 11 22 22 42 25 45 3 3 28 43 54 90 27
47 60 105 74 130 14 25 44 77 67 115 22 39 44 77 48 85 4 8 13 24 20 35 7 11
28 47 47 80 19 33 43 74 53 90 9 17 20 38 23 48 4 9 10 17 15 17 6 0 13 -8 16
-17 4 -10 20 -37 35 -59 15 -23 28 -46 28 -52 0 -6 3 -12 8 -14 4 -1 21 -30
37 -62 21 -42 26 -60 18 -63 -7 -3 -13 -13 -13 -23 0 -10 -4 -20 -8 -22 -8 -3
-49 -72 -80 -133 -8 -16 -20 -37 -27 -45 -7 -8 -26 -40 -42 -70 -28 -51 -56
-100 -200 -348 -31 -53 -79 -137 -108 -187 -28 -49 -58 -101 -66 -115 -8 -14
-18 -28 -24 -32 -5 -4 -6 -8 -2 -8 5 0 0 -12 -11 -27 -10 -16 -30 -48 -44 -73
-14 -25 -49 -85 -78 -135 -60 -102 -83 -143 -113 -200 -12 -22 -24 -42 -27
-45 -3 -3 -11 -16 -19 -30 -8 -14 -39 -68 -69 -120 -30 -52 -63 -108 -72 -125
-10 -16 -61 -106 -116 -200 -54 -93 -103 -180 -108 -192 -6 -13 -14 -23 -18
-23 -5 0 -8 -4 -8 -10 0 -5 -13 -31 -29 -58 -15 -26 -39 -68 -53 -93 -14 -24
-66 -115 -117 -201 -50 -86 -91 -162 -91 -167 0 -6 -4 -11 -9 -11 -5 0 -11 -8
-15 -17 -3 -10 -10 -25 -16 -33 -17 -25 -170 -292 -170 -297 0 -3 -9 -16 -20
-30 -11 -14 -20 -34 -20 -44 0 -9 -4 -19 -9 -21 -6 -1 -12 -14 -15 -28 -2 -14
-8 -43 -13 -65 -7 -32 -9 -210 -3 -210 1 0 3 -9 4 -20 12 -90 42 -150 112
-221 34 -35 76 -65 121 -86 l68 -32 295 -1 c303 -2 346 2 420 40 61 31 122 87
161 149 21 34 43 67 49 73 6 7 8 13 5 13 -3 0 8 20 25 45 17 25 28 45 25 45
-3 0 -1 6 5 13 11 13 64 102 200 340 47 81 97 169 112 195 16 26 31 55 34 64
4 10 10 18 15 18 5 0 9 5 9 10 0 6 17 38 38 73 20 34 44 76 52 92 8 17 17 32
20 35 5 5 110 186 173 300 17 30 34 57 39 58 4 2 8 8 8 13 0 6 50 95 110 199
61 104 110 194 110 200 0 5 4 10 9 10 5 0 14 12 20 28 6 15 34 65 61 111 28
46 50 85 50 87 0 2 15 27 33 56 19 29 37 60 41 68 4 8 12 24 19 35 7 12 35 60
62 108 28 48 52 87 55 87 3 0 16 -21 30 -47 13 -27 27 -50 30 -53 3 -3 16 -25
29 -50 14 -25 27 -47 30 -50 3 -3 11 -14 17 -25 6 -11 25 -45 42 -76 l32 -56
-20 -26 c-11 -14 -20 -27 -20 -30 0 -3 -32 -61 -71 -129 -39 -67 -80 -139 -91
-158 -11 -19 -29 -47 -40 -62 -11 -16 -17 -28 -14 -28 3 0 -15 -32 -40 -72
-24 -40 -44 -78 -44 -85 0 -7 -4 -13 -8 -13 -5 0 -16 -15 -25 -32 -9 -18 -25
-46 -35 -63 -10 -16 -37 -64 -60 -105 -24 -41 -47 -82 -52 -90 -11 -17 -128
-220 -164 -283 -13 -23 -55 -97 -95 -164 -39 -68 -71 -127 -71 -133 0 -5 -4
-10 -8 -10 -10 0 -48 -92 -57 -138 -13 -66 -8 -237 10 -297 40 -140 152 -248
290 -280 34 -8 145 -12 335 -10 241 1 292 4 330 19 66 25 121 60 161 103 36
38 139 203 139 223 0 5 5 10 10 10 6 0 10 4 10 9 0 13 152 275 162 279 4 2 8
9 8 14 0 10 27 60 109 198 11 19 30 52 42 74 l21 38 22 -33 c12 -19 46 -77 76
-129 29 -52 60 -103 68 -112 8 -10 11 -18 7 -18 -4 0 -1 -8 7 -17 9 -10 28
-40 43 -68 15 -27 39 -70 53 -95 13 -25 30 -52 37 -60 6 -8 17 -30 25 -47 7
-18 16 -33 21 -33 5 0 9 -5 9 -10 0 -24 108 -188 150 -228 47 -45 127 -89 183
-100 18 -4 165 -6 327 -6 288 0 296 0 350 24 76 32 131 76 177 138 59 81 75
138 77 272 2 124 -4 171 -34 238 -11 23 -20 46 -20 50 -1 4 -7 14 -14 22 -18
21 -70 114 -67 119 1 2 -2 7 -7 10 -5 3 -19 24 -31 46 -12 22 -26 47 -31 55
-16 24 -180 310 -212 370 -17 30 -34 60 -38 65 -6 8 -183 312 -292 505 -90
156 -142 246 -147 250 -17 15 -8 56 25 112 20 35 46 79 57 98 10 19 62 109
115 200 52 91 103 180 113 198 38 66 58 99 121 208 36 61 68 117 71 125 4 8
16 28 26 44 11 17 28 46 39 65 16 30 218 379 247 428 6 9 23 40 38 67 15 28
41 73 58 100 16 28 32 57 36 65 3 8 12 22 18 30 7 8 25 38 39 65 15 28 31 57
36 65 38 60 100 172 100 180 0 6 5 10 10 10 6 0 10 4 10 10 0 5 22 47 49 92
27 46 59 101 71 123 13 22 31 54 41 70 10 17 24 41 32 55 7 14 23 41 34 60 11
19 55 95 97 169 43 74 84 144 92 156 8 12 11 25 7 28 -3 4 -2 7 3 7 13 0 55
83 71 140 3 8 5 76 6 150 0 122 -2 141 -24 195 -45 108 -100 168 -205 219 -74
37 -129 42 -424 40 -284 -2 -304 -5 -396 -59 -63 -37 -108 -88 -164 -183 -28
-48 -55 -94 -60 -102 -5 -8 -86 -150 -181 -315 -95 -165 -195 -340 -224 -390
-176 -302 -335 -576 -367 -635 -11 -19 -28 -48 -38 -65 -10 -16 -28 -47 -39
-67 -37 -67 -46 -83 -52 -88 -3 -3 -13 -21 -22 -40 -10 -19 -23 -44 -30 -55
-30 -48 -63 -104 -90 -155 -17 -30 -43 -75 -57 -98 l-27 -44 -27 47 c-14 26
-26 50 -26 52 0 3 -8 17 -19 31 -10 15 -29 47 -43 72 -14 25 -40 71 -57 103
-32 55 -32 58 -17 82 9 14 13 25 9 25 -5 0 -3 4 2 8 10 6 21 24 83 132 11 19
46 80 77 135 32 55 66 116 77 135 11 19 24 40 28 45 4 6 21 35 37 65 32 57
156 274 173 300 9 15 77 133 135 234 15 28 41 72 56 98 52 88 64 140 63 283
-1 153 -20 214 -88 298 -65 79 -134 121 -241 145 -11 2 -144 5 -295 5 -243 1
-283 -1 -338 -17 -34 -11 -62 -22 -62 -26 0 -5 -11 -11 -24 -14 -27 -7 -126
-103 -126 -123 0 -7 -4 -13 -8 -13 -4 0 -20 -24 -35 -52 -28 -54 -40 -74 -68
-118 -9 -14 -27 -45 -41 -70 -14 -25 -37 -65 -51 -90 -15 -25 -41 -71 -58
-102 -18 -32 -35 -58 -39 -58 -4 0 -13 12 -20 28 -8 15 -19 33 -25 41 -10 14
-53 87 -105 181 -16 30 -38 69 -48 85 -10 17 -40 68 -67 115 -76 131 -176 213
-285 235 -28 6 -557 14 -563 9z"/>
</g>
</svg>
